<svg version="1.1" class="has-solid " viewBox="0 0 36 36" preserveAspectRatio="xMidYMid meet" xmlns="http://www.w3.org/2000/svg" xmlns:xlink="http://www.w3.org/1999/xlink" focusable="false" aria-hidden="true" role="img" width="80" height="80" fill=""><path d="M25,4H11A2,2,0,0,0,9,6V30a2,2,0,0,0,2,2H25a2,2,0,0,0,2-2V6A2,2,0,0,0,25,4ZM11,6H25V24H11Zm0,24V26H25v4Z" class="clr-i-outline clr-i-outline-path-1"/><path d="M25,4H11A2,2,0,0,0,9,6V30a2,2,0,0,0,2,2H25a2,2,0,0,0,2-2V6A2,2,0,0,0,25,4ZM19,30H17V28h2Zm-8-4V6H25V26Z" class="clr-i-solid clr-i-solid-path-1" style="display:none"/><rect x="17" y="27" width="2" height="2" class="clr-i-outline clr-i-outline-path-2"/></svg>